<svg viewBox="0 0 1283 117" xmlns="http://www.w3.org/2000/svg" xml:space="preserve" style="fill-rule:evenodd;clip-rule:evenodd;stroke-linejoin:round;stroke-miterlimit:2"><path d="M146.241 110.873V.131h52.478v273.576h-52.478V163.351H52.477v110.356H0V.131h52.477v110.742h93.764ZM251.195 78.167h52.479v195.54h-52.479zM498.534 72.288l-16.978-16.979c-1.544-1.543-3.859-2.701-6.175-2.701h-66.754v168.623h66.754c2.316 0 4.631-.773 6.175-2.703l16.978-16.59c1.542-1.931 2.314-3.858 2.314-6.174V78.462c0-2.315-.772-4.631-2.314-6.174Zm42.058-32.026c8.104 8.103 12.734 19.293 12.734 30.869v131.578c0 11.575-4.689 22.709-12.734 30.869l-27.009 27.399c-8.243 8.356-19.294 12.73-30.871 12.73h-100.71c-2.314 0-4.629-.771-6.172-2.701l-16.978-16.978c-1.93-1.543-2.701-3.86-2.701-6.174V.131H482.71c11.575 0 22.38 4.633 30.868 13.119l27.011 27.012h.003ZM656.352 167.981h64.437L688.378 75.76l-32.026 92.221Zm-18.522 52.477-18.908 53.249h-55.564L657.509 6.305c1.157-3.859 4.244-6.174 8.104-6.174h45.916c3.474 0 6.946 2.315 8.104 5.79l94.149 267.786h-55.563l-18.907-53.249H637.83Z" style="fill:#fff;fill-rule:nonzero" transform="scale(.38892)"/><path d="M295.211 52.154h-36.016c-4.419 0-8-3.589-8-8.001V8.149c0-4.43 3.581-8.018 8-8.018h36.016c4.419 0 8 3.588 8 8.018v36.004c0 4.412-3.581 8.001-8 8.001Z" style="fill:#1cc3f4;fill-rule:nonzero" transform="scale(.38892)"/><path d="m1267.05.124-31.25 54.134L1204.54.124h-21.5v117.139h22.47V44.818l20.16 34.918a3.75 3.75 0 0 0 3.24 1.874h13.77c1.34 0 2.58-.714 3.25-1.874l19.99-34.637v72.164h22.47V.124h-21.34Zm487.16 1.157c-.66-.672-1.66-1.157-2.65-1.157h-65.59v22.468h46.43l-48.58 76.833v6.766c0 .997.49 1.993 1.15 2.651l7.27 7.264c.66.821 1.65 1.157 2.65 1.157h67.08V94.797h-48.58l49.24-77.828v-5.786c0-.982-.5-1.977-1.16-2.636l-7.26-7.266Zm-133.95 21.311v94.671h22.46V22.592h31.07V.124h-84.6v22.468h31.07Zm-78.51 94.671h53.19V94.797h-41.79V.124h-22.47v106.067c0 .997.32 1.993 1.16 2.651l7.26 7.264c.66.821 1.66 1.157 2.65 1.157ZM1491.74 5.735c-3.63-3.472-8.26-5.611-13.22-5.611h-26.26c-4.97 0-9.76 1.978-13.39 5.611l-11.57 11.57c-3.47 3.47-5.45 8.26-5.45 13.212V86.86c0 4.964 1.98 9.754 5.45 13.225l11.57 11.73c3.47 3.632 8.42 5.448 13.39 5.448h26.26c4.96 0 9.75-1.977 13.22-5.448l11.73-11.73c3.47-3.471 5.45-8.261 5.45-13.225V30.517c0-4.952-1.98-9.742-5.45-13.212l-11.73-11.57Zm-5.29 78.151c0 .997-.49 1.817-1.15 2.651l-7.11 7.103a3.886 3.886 0 0 1-2.81 1.157h-20.15c-1 0-1.82-.336-2.65-1.157l-7.1-7.103c-.82-.834-1.16-1.654-1.16-2.651V33.664c0-.996.34-1.99 1.16-2.65l7.1-7.265c.83-.66 1.65-1.157 2.65-1.157h20.15c1 0 1.98.497 2.81 1.157l7.11 7.265c.66.66 1.15 1.654 1.15 2.65v50.222Zm-149.48-36.352V.124h-22.47v117.139h22.47V70.016h40.15v47.247h22.48V.124h-22.48v47.41h-40.15Zm-220.16 69.729h52.25V94.797h-40.85V.124h-22.47v106.067c0 .997.32 1.993 1.16 2.651l7.26 7.264c.66.821 1.66 1.157 2.65 1.157ZM1020.21.124c-.99 0-1.99.485-2.65 1.157l-7.26 7.266c-.82.659-1.16 1.654-1.16 2.636v95.008c0 .997.34 1.993 1.16 2.651l7.26 7.264c.66.821 1.66 1.157 2.65 1.157H1083V94.797h-51.39V70.016h44.61V47.534h-44.61V22.592H1083V.124h-62.79Zm-58.724 0h22.481v117.139h-22.481V70.016h-40.145v47.247h-22.466V.124h22.466v47.41h40.145V.124ZM898.875 175.105h13.949v98.396h-13.949zM995.17 226.253v47.248h-13.649v-46.198c0-10.5-6.3-17.25-16.2-17.25-7.799 0-14.249 3.75-17.699 9.6v53.848h-13.499v-74.398h12.149l.6 6.75c5.1-5.399 12.3-8.55 21-8.55 16.799 0 27.298 11.1 27.298 28.95ZM1035.22 199.103h24.45v12.3h-24.45v62.098h-13.5v-62.098h-19.05v-12.3h19.05v-8.999c0-13.649 7.65-20.999 21.45-20.999h11.25v12.299h-10.35c-5.7 0-8.85 3.15-8.85 9.45v8.249ZM1116.37 244.852v-16.799c0-11.1-6.75-18-18-18-11.1 0-18 6.9-18 18v16.799c0 10.95 7.05 17.7 18 17.7 11.1 0 18-6.901 18-17.7Zm-49.5.3v-17.55c0-18.299 12.3-30.299 31.35-30.299 19.2 0 31.65 12 31.65 30.299v17.55c0 18.15-12.45 30.149-31.65 30.149-18.9 0-31.35-11.85-31.35-30.149ZM1188.97 199.103v12.3h-10.8c-7.5 0-13.35 3.45-16.8 9.45v52.648h-13.5v-74.398h12.15l.6 6.151c4.8-4.05 11.1-6.151 18.15-6.151h10.2ZM1305.67 226.253v47.248h-13.5v-46.198c0-10.65-6.45-17.25-16.2-17.25-7.2 0-13.35 3.6-16.95 9 .45 2.25.6 4.65.6 7.2v47.248h-13.5v-46.198c0-10.65-6.45-17.25-16.2-17.25-6.75 0-12.75 3.15-16.35 8.4v55.048h-13.5v-74.398h12.15l.45 5.851c5.1-4.95 12-7.651 20.25-7.651 9.3 0 16.8 3.601 21.45 10.201 5.25-6.451 13.2-10.201 23.4-10.201 17.25 0 27.9 10.651 27.9 28.95ZM1368.37 252.952v-12.75l-20.4 3c-9.15 1.2-13.2 4.95-13.2 10.5 0 6.149 5.25 9.899 13.65 9.899 8.85 0 16.2-3.9 19.95-10.649Zm13.65-27.899v48.448h-12.15l-.45-5.85c-5.25 4.949-12.75 7.65-21.9 7.65-16.35 0-26.25-8.1-26.25-21.45 0-12.149 7.8-19.048 24.45-21.298l22.65-3v-4.65c0-9.6-5.55-14.85-16.2-14.85-10.65 0-16.65 5.25-16.65 13.95v1.05h-13.65v-1.05c0-16.2 11.85-26.7 30.6-26.7 18.9 0 29.55 10.05 29.55 27.75ZM1422.67 179.155v19.948h24.45v12.3h-24.45v40.349c0 6.15 3 9.449 8.85 9.449h12v12.3h-12.45c-14.25 0-21.9-7.65-21.9-21.299v-40.799h-19.65v-12.3h15.9c3.15 0 4.05-1.349 4.05-4.05v-15.898h13.2ZM1473.07 273.501h-13.5v-74.398h13.5v74.398Zm-16.05-94.947c0-5.549 4.05-9.299 9.3-9.299 5.4 0 9.3 3.75 9.3 9.299 0 5.25-3.9 9.15-9.3 9.15s-9.3-3.9-9.3-9.15ZM1540.72 244.852v-16.799c0-11.1-6.75-18-18-18-11.1 0-18 6.9-18 18v16.799c0 10.95 7.05 17.7 18 17.7 11.1 0 18-6.901 18-17.7Zm-49.5.3v-17.55c0-18.299 12.3-30.299 31.35-30.299 19.2 0 31.64 12 31.64 30.299v17.55c0 18.15-12.44 30.149-31.64 30.149-18.9 0-31.35-11.85-31.35-30.149ZM1632.51 226.253v47.248h-13.65v-46.198c0-10.5-6.3-17.25-16.2-17.25-7.8 0-14.25 3.75-17.69 9.6v53.848h-13.5v-74.398h12.14l.61 6.75c5.09-5.399 12.29-8.55 20.99-8.55 16.8 0 27.3 11.1 27.3 28.95ZM1709.16 198.053c0 4.201 1.65 7.05 7.65 13.05l4.95 4.95 6.6-4.35c7.65-4.8 10.05-8.1 10.05-13.65v-1.5c0-6.449-5.85-10.649-14.7-10.649s-14.55 4.2-14.55 10.649v1.5Zm30.75 54.749-21.75-21.599-3.3 1.949c-8.1 5.1-11.7 9.75-11.7 15.15v1.65c0 7.8 6 12.449 16.2 12.449 8.7 0 14.4-2.55 20.55-9.599Zm39-34.199v2.1l-21.6 30.599 20.1 20.099v2.1h-16.65l-11.7-11.55c-8.7 9.3-17.7 13.35-29.25 13.35-18.15 0-30.15-10.05-30.15-24.599v-2.101c0-9.599 5.85-17.848 18.15-25.348l1.5-.9-2.55-2.55c-8.1-7.95-11.1-13.799-11.1-21.449v-1.95c0-13.8 11.25-23.1 28.35-23.1 16.8 0 27.75 9.151 27.75 23.1v1.95c0 8.549-4.95 16.049-15.3 22.649l-5.85 3.75 17.25 17.249 16.35-23.399h14.7ZM1848.21 187.854v72.898h19.2c14.55 0 22.5-8.25 22.5-22.65v-27.449c0-14.399-8.1-22.799-22.5-22.799h-19.2Zm-14.1 85.647v-98.396h32.85c22.5 0 37.05 13.949 37.05 35.098v28.199c0 21.151-14.55 35.099-37.05 35.099h-32.85ZM1966.11 252.952v-12.75l-20.4 3c-9.15 1.2-13.2 4.95-13.2 10.5 0 6.149 5.25 9.899 13.65 9.899 8.85 0 16.2-3.9 19.95-10.649Zm13.65-27.899v48.448h-12.15l-.45-5.85c-5.25 4.949-12.75 7.65-21.9 7.65-16.35 0-26.25-8.1-26.25-21.45 0-12.149 7.8-19.048 24.45-21.298l22.65-3v-4.65c0-9.6-5.55-14.85-16.2-14.85-10.65 0-16.65 5.25-16.65 13.95v1.05h-13.65v-1.05c0-16.2 11.85-26.7 30.6-26.7 18.9 0 29.55 10.05 29.55 27.75ZM2020.41 179.155v19.948h24.45v12.3h-24.45v40.349c0 6.15 3 9.449 8.85 9.449h12v12.3h-12.45c-14.25 0-21.9-7.65-21.9-21.299v-40.799h-19.65v-12.3h15.9c3.15 0 4.05-1.349 4.05-4.05v-15.898h13.2ZM2100.81 252.952v-12.75l-20.4 3c-9.15 1.2-13.2 4.95-13.2 10.5 0 6.149 5.25 9.899 13.65 9.899 8.85 0 16.2-3.9 19.95-10.649Zm13.65-27.899v48.448h-12.15l-.45-5.85c-5.25 4.949-12.75 7.65-21.9 7.65-16.35 0-26.25-8.1-26.25-21.45 0-12.149 7.8-19.048 24.45-21.298l22.65-3v-4.65c0-9.6-5.55-14.85-16.2-14.85-10.65 0-16.65 5.25-16.65 13.95v1.05h-13.65v-1.05c0-16.2 11.85-26.7 30.6-26.7 18.9 0 29.55 10.05 29.55 27.75ZM2173.11 245.452v-3.45h13.35v3.45c0 11.399 7.35 17.249 21 17.249 12.6 0 20.1-5.398 20.1-14.999v-1.65c0-7.8-4.65-12.45-15.3-15.299l-13.8-3.6c-15.75-4.05-23.7-12.45-23.7-24.749v-2.101c0-16.199 13.2-26.999 33.3-26.999 20.4 0 32.25 10.35 32.25 28.2v3.45h-13.35v-3.45c0-10.65-6.3-15.9-19.5-15.9-11.7 0-18.9 5.25-18.9 13.949v1.651c0 6.75 5.1 11.55 14.4 14.099l13.5 3.75c17.25 4.65 25.05 12.75 25.05 25.949v2.099c0 17.25-13.35 28.2-34.05 28.2-22.2 0-34.35-10.65-34.35-29.849ZM2256.06 245.152v-17.699c0-18.15 12.6-30.15 31.65-30.15 18 0 30.6 11.85 30.6 28.5v1.65h-13.5v-1.65c0-9.3-7.05-15.75-17.1-15.75-11.25 0-18 6.75-18 17.7v17.099c0 10.95 6.9 17.7 18 17.7 10.05 0 17.1-6.3 17.1-15.3v-1.65h13.5v1.65c0 16.8-12.15 28.049-30.6 28.049-19.05 0-31.65-11.999-31.65-30.149ZM2349.36 273.501h-13.5v-74.398h13.5v74.398Zm-16.05-94.947c0-5.549 4.05-9.299 9.3-9.299 5.4 0 9.3 3.75 9.3 9.299 0 5.25-3.9 9.15-9.3 9.15s-9.3-3.9-9.3-9.15ZM2381.01 227.902v2.101h35.4v-2.101c0-11.099-6.75-17.999-17.4-17.999-11.1 0-18 7.05-18 17.999Zm48.89 13.35h-48.89v3.6c0 11.1 6.9 17.849 18.3 17.849 9.75 0 16.95-5.398 17.1-12.449h13.49c-.75 14.849-13.05 25.049-30.59 25.049-19.2 0-31.8-11.85-31.8-29.999v-17.849c0-18.15 12.6-30.15 31.5-30.15 18.75 0 30.89 12 30.89 30v13.949ZM2508.2 226.253v47.248h-13.65v-46.198c0-10.5-6.3-17.25-16.2-17.25-7.79 0-14.25 3.75-17.69 9.6v53.848h-13.5v-74.398h12.15l.6 6.75c5.1-5.399 12.29-8.55 20.99-8.55 16.8 0 27.3 11.1 27.3 28.95ZM2524.85 245.152v-17.699c0-18.15 12.6-30.15 31.65-30.15 18 0 30.6 11.85 30.6 28.5v1.65h-13.5v-1.65c0-9.3-7.05-15.75-17.1-15.75-11.25 0-18 6.75-18 17.7v17.099c0 10.95 6.9 17.7 18 17.7 10.05 0 17.1-6.3 17.1-15.3v-1.65h13.5v1.65c0 16.8-12.15 28.049-30.6 28.049-19.05 0-31.65-11.999-31.65-30.149ZM2614.85 227.902v2.101h35.4v-2.101c0-11.099-6.75-17.999-17.4-17.999-11.1 0-18 7.05-18 17.999Zm48.9 13.35h-48.9v3.6c0 11.1 6.9 17.849 18.3 17.849 9.75 0 16.95-5.398 17.1-12.449h13.5c-.75 14.849-13.05 25.049-30.6 25.049-19.2 0-31.8-11.85-31.8-29.999v-17.849c0-18.15 12.6-30.15 31.5-30.15 18.75 0 30.9 12 30.9 30v13.949ZM2749.1 191.154l-14.55 46.649h29.25l-14.7-46.649Zm8.1-16.049 31.65 96.146v2.25h-13.95l-7.2-22.949h-37.2l-7.2 22.949h-13.95v-2.25l31.65-96.146h16.2ZM2798.46 245.152v-17.699c0-18.15 12.6-30.15 31.64-30.15 18 0 30.6 11.85 30.6 28.5v1.65h-13.5v-1.65c0-9.3-7.05-15.75-17.1-15.75-11.25 0-18 6.75-18 17.7v17.099c0 10.95 6.9 17.7 18 17.7 10.05 0 17.1-6.3 17.1-15.3v-1.65h13.5v1.65c0 16.8-12.15 28.049-30.6 28.049-19.04 0-31.64-11.999-31.64-30.149ZM2921.75 252.952v-12.75l-20.4 3c-9.15 1.2-13.2 4.95-13.2 10.5 0 6.149 5.25 9.899 13.65 9.899 8.85 0 16.2-3.9 19.95-10.649Zm13.65-27.899v48.448h-12.15l-.45-5.85c-5.25 4.949-12.75 7.65-21.9 7.65-16.35 0-26.25-8.1-26.25-21.45 0-12.149 7.8-19.048 24.45-21.298l22.65-3v-4.65c0-9.6-5.55-14.85-16.2-14.85-10.65 0-16.65 5.25-16.65 13.95v1.05h-13.65v-1.05c0-16.2 11.85-26.7 30.6-26.7 18.9 0 29.55 10.05 29.55 27.75ZM3001.1 252.802v-33.149c-3.45-6.149-10.05-9.6-17.7-9.6-10.8 0-17.7 6.6-17.7 17.25v17.999c0 10.65 6.9 17.25 17.7 17.25 7.5 0 14.1-3.601 17.7-9.75Zm0-83.697h13.5v104.396h-12.15l-.6-6.15c-5.1 5.1-12.6 7.95-21 7.95-17.55 0-28.8-11.7-28.8-29.549v-19.049c0-17.699 11.25-29.4 28.65-29.4 8.25 0 15.3 2.701 20.4 7.651v-35.849ZM3045.2 227.902v2.101h35.4v-2.101c0-11.099-6.75-17.999-17.4-17.999-11.1 0-18 7.05-18 17.999Zm48.9 13.35h-48.9v3.6c0 11.1 6.9 17.849 18.3 17.849 9.75 0 16.95-5.398 17.1-12.449h13.5c-.75 14.849-13.05 25.049-30.6 25.049-19.2 0-31.8-11.85-31.8-29.999v-17.849c0-18.15 12.6-30.15 31.5-30.15 18.75 0 30.9 12 30.9 30v13.949ZM3216.5 226.253v47.248H3203v-46.198c0-10.65-6.45-17.25-16.2-17.25-7.2 0-13.35 3.6-16.95 9 .45 2.25.6 4.65.6 7.2v47.248h-13.5v-46.198c0-10.65-6.45-17.25-16.2-17.25-6.75 0-12.75 3.15-16.35 8.4v55.048h-13.5v-74.398h12.15l.45 5.851c5.1-4.95 12-7.651 20.25-7.651 9.3 0 16.8 3.601 21.45 10.201 5.25-6.451 13.2-10.201 23.4-10.201 17.25 0 27.9 10.651 27.9 28.95ZM3254.9 274.401l-29.25-73.197v-2.101h13.8l22.5 57.899 21.6-57.899h13.8v2.101L3266.3 282.2c-4.5 11.85-10.95 16.8-23.4 16.8h-11.85v-12.3h10.65c5.7 0 9-1.2 11.85-8.55l1.35-3.749Z" style="fill:#fff;fill-rule:nonzero" transform="scale(.38892)"/></svg>
